<svg id="Слой_1" data-name="Слой 1" xmlns="http://www.w3.org/2000/svg" xmlns:xlink="http://www.w3.org/1999/xlink" viewBox="0 0 728.38 728.38"><defs><style>.cls-1,.cls-2,.cls-4{fill:none;}.cls-1,.cls-4{stroke:#000;stroke-miterlimit:10;}.cls-3{clip-path:url(#clip-path);}.cls-4{stroke-width:30px;}.cls-5{clip-path:url(#clip-path-2);}</style><clipPath id="clip-path"><rect class="cls-1" x="122.06" y="125.97" width="476.43" height="476.43"/></clipPath><clipPath id="clip-path-2"><rect class="cls-2" x="118.14" y="-790.05" width="476.43" height="476.43"/></clipPath></defs><g class="cls-3"><polygon class="cls-4" points="575.16 749.66 122.06 602.41 212.8 134.69 680.51 225.44 575.16 749.66"/><polygon class="cls-4" points="507.47 882.49 122.06 602.41 317.49 167.9 760.18 386.14 507.47 882.49"/><polygon class="cls-4" points="402.04 987.89 122.06 602.41 429.07 238.08 793.39 545.1 402.04 987.89"/><polygon class="cls-4" points="269.19 1055.55 122.06 602.41 521.74 343.1 774.4 770.98 269.19 1055.55"/><polygon class="cls-4" points="145.27 1078.28 122.06 602.41 580.08 471.24 703.53 942.8 145.27 1078.28"/></g><rect class="cls-1" x="122.06" y="125.97" width="476.43" height="476.43"/><rect class="cls-4" x="129.89" y="125.97" width="476.43" height="476.43"/><g class="cls-5"><polygon class="cls-4" points="398.12 71.87 118.14 -313.62 425.15 -677.94 789.47 -370.93 398.12 71.87"/><polygon class="cls-4" points="265.27 139.53 118.14 -313.62 517.82 -572.92 770.49 -145.04 265.27 139.53"/><polygon class="cls-4" points="141.35 162.25 118.14 -313.62 576.16 -444.78 699.61 26.78 141.35 162.25"/></g></svg>