<svg id="Слой_1" data-name="Слой 1" xmlns="http://www.w3.org/2000/svg" xmlns:xlink="http://www.w3.org/1999/xlink" viewBox="0 0 728.38 728.38"><defs><style>.cls-1,.cls-3{fill:none;}.cls-2{clip-path:url(#clip-path);}.cls-3{stroke:#000;stroke-miterlimit:10;stroke-width:30px;}</style><clipPath id="clip-path"><rect class="cls-1" x="118.14" y="79.25" width="476.43" height="476.43"/></clipPath></defs><path d="M111.13,584.22H131.2v106.5H111.13Zm8.79,87.16h34q6.89,0,10.65-3.33t3.77-9.34v-.22a13.34,13.34,0,0,0-1.68-6.88,10.76,10.76,0,0,0-4.94-4.36,18.59,18.59,0,0,0-7.8-1.5h-34V626.41h34q6.22,0,9.63-3.15t3.4-8.86a9.83,9.83,0,0,0-3.4-8q-3.4-2.86-9.63-2.86h-34V584.22h34.65q10.32,0,17.65,3.41a24.51,24.51,0,0,1,11.13,9.89,30.18,30.18,0,0,1,3.81,15.56,23.79,23.79,0,0,1-2.46,11,20.36,20.36,0,0,1-7.14,7.88,28.92,28.92,0,0,1-11.28,4.17,28.4,28.4,0,0,1,12.05,4.29,21.49,21.49,0,0,1,7.62,8.68,28,28,0,0,1,2.6,12.37v.22a30.28,30.28,0,0,1-3.85,15.68,24.58,24.58,0,0,1-11.2,9.92,41.88,41.88,0,0,1-17.69,3.41H119.92Z"/><path d="M259.41,584.22h20.07v106.5H259.41Zm7.25,0h64.09v19.34H266.66Zm0,43.95h56V647.5h-56Zm0,43.21h64.09v19.34H266.66Z"/><path d="M400.51,584.22h20.07v106.5H400.51Zm7.25,0h64.09v19.34H407.76Zm0,43.95h56V647.5h-56Zm0,43.21h64.09v19.34H407.76Z"/><path d="M541.61,584.22h20.06v106.5H541.61Zm9.15,45.85h34.06a12,12,0,0,0,6.33-1.65,11.23,11.23,0,0,0,4.29-4.65,14.93,14.93,0,0,0,1.54-6.88,15.43,15.43,0,0,0-1.51-7,11,11,0,0,0-4.24-4.69,12.21,12.21,0,0,0-6.41-1.65H550.76V584.22h33.55a36.57,36.57,0,0,1,17.54,4.07,28.88,28.88,0,0,1,11.75,11.46,37.15,37.15,0,0,1,0,34.24,28.66,28.66,0,0,1-11.75,11.39,36.79,36.79,0,0,1-17.54,4H550.76Z"/><g class="cls-2"><polygon class="cls-3" points="571.25 702.93 118.14 555.68 208.88 87.97 676.59 178.71 571.25 702.93"/><polygon class="cls-3" points="503.55 835.76 118.14 555.68 313.57 121.18 756.26 339.42 503.55 835.76"/><polygon class="cls-3" points="398.12 941.17 118.14 555.68 425.15 191.36 789.47 498.38 398.12 941.17"/><polygon class="cls-3" points="265.27 1008.83 118.14 555.68 517.82 296.38 770.49 724.26 265.27 1008.83"/><polygon class="cls-3" points="141.35 1031.55 118.14 555.68 576.16 424.52 699.61 896.08 141.35 1031.55"/></g><rect class="cls-3" x="125.97" y="79.25" width="476.43" height="476.43"/></svg>