<svg id="Слой_1" data-name="Слой 1" xmlns="http://www.w3.org/2000/svg" xmlns:xlink="http://www.w3.org/1999/xlink" viewBox="0 0 728.38 728.38"><defs><style>.cls-1,.cls-3{fill:none;stroke:#fff;stroke-miterlimit:10;}.cls-2{clip-path:url(#clip-path);}.cls-3{stroke-width:30px;}.cls-4{clip-path:url(#clip-path-2);}</style><clipPath id="clip-path"><rect class="cls-1" x="122.06" y="125.97" width="476.43" height="476.43"/></clipPath><clipPath id="clip-path-2"><rect class="cls-1" x="122.06" y="-790.05" width="476.43" height="476.43"/></clipPath></defs><g class="cls-2"><polygon class="cls-3" points="575.16 749.66 122.06 602.41 212.8 134.69 680.51 225.44 575.16 749.66"/><polygon class="cls-3" points="507.47 882.49 122.06 602.41 317.49 167.9 760.18 386.14 507.47 882.49"/><polygon class="cls-3" points="402.04 987.89 122.06 602.41 429.07 238.08 793.39 545.1 402.04 987.89"/><polygon class="cls-3" points="269.19 1055.55 122.06 602.41 521.74 343.1 774.4 770.98 269.19 1055.55"/><polygon class="cls-3" points="145.27 1078.28 122.06 602.41 580.08 471.24 703.53 942.8 145.27 1078.28"/></g><rect class="cls-1" x="122.06" y="125.97" width="476.43" height="476.43"/><rect class="cls-3" x="129.89" y="125.97" width="476.43" height="476.43"/><g class="cls-4"><polygon class="cls-3" points="402.04 71.87 122.06 -313.62 429.07 -677.94 793.39 -370.93 402.04 71.87"/><polygon class="cls-3" points="269.19 139.53 122.06 -313.62 521.74 -572.92 774.4 -145.04 269.19 139.53"/><polygon class="cls-3" points="145.27 162.25 122.06 -313.62 580.08 -444.78 703.53 26.78 145.27 162.25"/></g><rect class="cls-1" x="122.06" y="-790.05" width="476.43" height="476.43"/></svg>