<svg id="Слой_1" data-name="Слой 1" xmlns="http://www.w3.org/2000/svg" xmlns:xlink="http://www.w3.org/1999/xlink" viewBox="0 0 728.38 728.38"><defs><style>.cls-1,.cls-2,.cls-5,.cls-7{fill:none;stroke-miterlimit:10;}.cls-1,.cls-5{stroke:#fff;}.cls-2,.cls-7{stroke:#000;}.cls-3{fill:#fff;}.cls-4{clip-path:url(#clip-path);}.cls-5,.cls-7{stroke-width:30px;}.cls-6{clip-path:url(#clip-path-2);}</style><clipPath id="clip-path"><rect class="cls-1" x="122.06" y="79.25" width="476.43" height="476.43"/></clipPath><clipPath id="clip-path-2"><rect class="cls-2" x="122.06" y="-764.53" width="476.43" height="476.43"/></clipPath></defs><path class="cls-3" d="M115.05,584.22h20.07v106.5H115.05Zm8.79,87.16h34q6.88,0,10.66-3.33t3.77-9.34v-.22a13.34,13.34,0,0,0-1.68-6.88,10.79,10.79,0,0,0-4.95-4.36,18.52,18.52,0,0,0-7.8-1.5h-34V626.41h34q6.23,0,9.64-3.15t3.4-8.86a9.86,9.86,0,0,0-3.4-8q-3.41-2.85-9.64-2.85h-34V584.22h34.64q10.34,0,17.65,3.41a24.48,24.48,0,0,1,11.14,9.89,30.18,30.18,0,0,1,3.81,15.56,23.79,23.79,0,0,1-2.46,11,20.36,20.36,0,0,1-7.14,7.88,28.92,28.92,0,0,1-11.28,4.17,28.4,28.4,0,0,1,12.05,4.29,21.64,21.64,0,0,1,7.62,8.68,28,28,0,0,1,2.6,12.37v.22a30.28,30.28,0,0,1-3.85,15.68,24.63,24.63,0,0,1-11.2,9.92,41.91,41.91,0,0,1-17.69,3.41H123.84Z"/><path class="cls-3" d="M263.33,584.22H283.4v106.5H263.33Zm7.25,0h64.08v19.34H270.58Zm0,43.95h56V647.5h-56Zm0,43.21h64.08v19.34H270.58Z"/><path class="cls-3" d="M404.43,584.22h20.06v106.5H404.43Zm7.25,0h64.08v19.34H411.68Zm0,43.95h56V647.5h-56Zm0,43.21h64.08v19.34H411.68Z"/><path class="cls-3" d="M545.52,584.22h20.07v106.5H545.52Zm9.16,45.85h34.06a12,12,0,0,0,6.33-1.65,11.23,11.23,0,0,0,4.29-4.65,14.93,14.93,0,0,0,1.54-6.88,15.56,15.56,0,0,0-1.51-7,11,11,0,0,0-4.24-4.69,12.21,12.21,0,0,0-6.41-1.65H554.68V584.22h33.54a36.61,36.61,0,0,1,17.55,4.07,28.88,28.88,0,0,1,11.75,11.46,37.15,37.15,0,0,1,0,34.24,28.66,28.66,0,0,1-11.75,11.39,36.83,36.83,0,0,1-17.55,4H554.68Z"/><g class="cls-4"><polygon class="cls-5" points="575.16 702.93 122.06 555.68 212.8 87.97 680.51 178.71 575.16 702.93"/><polygon class="cls-5" points="507.47 835.76 122.06 555.68 317.49 121.18 760.18 339.42 507.47 835.76"/><polygon class="cls-5" points="402.04 941.17 122.06 555.68 429.07 191.36 793.39 498.38 402.04 941.17"/><polygon class="cls-5" points="269.19 1008.83 122.06 555.68 521.74 296.38 774.4 724.26 269.19 1008.83"/><polygon class="cls-5" points="145.27 1031.55 122.06 555.68 580.08 424.52 703.53 896.08 145.27 1031.55"/></g><rect class="cls-1" x="122.06" y="79.25" width="476.43" height="476.43"/><rect class="cls-5" x="129.89" y="79.25" width="476.43" height="476.43"/><g class="cls-6"><polygon class="cls-7" points="507.47 -8.02 122.06 -288.1 317.49 -722.6 760.18 -504.36 507.47 -8.02"/><polygon class="cls-7" points="402.04 97.39 122.06 -288.1 429.07 -652.42 793.39 -345.4 402.04 97.39"/><polygon class="cls-7" points="269.19 165.05 122.06 -288.1 521.74 -547.4 774.4 -119.52 269.19 165.05"/><polygon class="cls-7" points="145.27 187.77 122.06 -288.1 580.08 -419.26 703.53 52.3 145.27 187.77"/></g><rect class="cls-2" x="122.06" y="-764.53" width="476.43" height="476.43"/></svg>