<svg id="Слой_1" data-name="Слой 1" xmlns="http://www.w3.org/2000/svg" xmlns:xlink="http://www.w3.org/1999/xlink" viewBox="0 0 506.65 626.47"><defs><style>.cls-1,.cls-2,.cls-5,.cls-7{fill:none;stroke-miterlimit:10;}.cls-1,.cls-5{stroke:#fff;}.cls-2,.cls-7{stroke:#000;}.cls-3{fill:#fff;}.cls-4{clip-path:url(#clip-path);}.cls-5,.cls-7{stroke-width:30px;}.cls-6{clip-path:url(#clip-path-2);}</style><clipPath id="clip-path"><rect class="cls-1" x="7.01" y="15" width="476.43" height="476.43"/></clipPath><clipPath id="clip-path-2"><rect class="cls-2" x="7.01" y="-828.78" width="476.43" height="476.43"/></clipPath></defs><path class="cls-3" d="M0,520H20.07V626.47H0Zm8.79,87.15h34q6.88,0,10.66-3.33t3.77-9.34v-.22a13.34,13.34,0,0,0-1.68-6.88,10.79,10.79,0,0,0-5-4.36,18.52,18.52,0,0,0-7.8-1.5h-34V562.16h34q6.23,0,9.63-3.15t3.41-8.86a9.81,9.81,0,0,0-3.41-8q-3.4-2.86-9.63-2.86h-34V520H43.43q10.34,0,17.65,3.4a24.48,24.48,0,0,1,11.14,9.89A30.28,30.28,0,0,1,76,548.83a23.86,23.86,0,0,1-2.46,11,20.48,20.48,0,0,1-7.14,7.87,28.92,28.92,0,0,1-11.28,4.17,28.45,28.45,0,0,1,12.05,4.29,21.64,21.64,0,0,1,7.62,8.68,28,28,0,0,1,2.6,12.37v.23a30.26,30.26,0,0,1-3.85,15.67,24.63,24.63,0,0,1-11.2,9.92,41.91,41.91,0,0,1-17.69,3.41H8.79Z"/><path class="cls-3" d="M148.28,520h20.06V626.47H148.28Zm7.25,0h64.08v19.33H155.53Zm0,43.94h56v19.34h-56Zm0,43.21h64.08v19.34H155.53Z"/><path class="cls-3" d="M289.37,520h20.07V626.47H289.37Zm7.26,0h64.08v19.33H296.63Zm0,43.94h56v19.34h-56Zm0,43.21h64.08v19.34H296.63Z"/><path class="cls-3" d="M430.47,520h20.07V626.47H430.47Zm9.16,45.84h34.06a12,12,0,0,0,6.33-1.64,11.36,11.36,0,0,0,4.29-4.65,15,15,0,0,0,1.53-6.89,15.56,15.56,0,0,0-1.5-7,10.94,10.94,0,0,0-4.25-4.69,12.17,12.17,0,0,0-6.4-1.65H439.63V520h33.54A36.61,36.61,0,0,1,490.72,524a28.88,28.88,0,0,1,11.75,11.46,37.15,37.15,0,0,1,0,34.24,28.66,28.66,0,0,1-11.75,11.39,36.83,36.83,0,0,1-17.55,4H439.63Z"/><g class="cls-4"><polygon class="cls-5" points="460.11 638.68 7.01 491.44 97.75 23.72 565.46 114.46 460.11 638.68"/><polygon class="cls-5" points="392.42 771.51 7.01 491.44 202.44 56.93 645.13 275.17 392.42 771.51"/><polygon class="cls-5" points="286.99 876.92 7.01 491.44 314.02 127.11 678.34 434.13 286.99 876.92"/><polygon class="cls-5" points="154.14 944.58 7.01 491.44 406.69 232.13 659.36 660.01 154.14 944.58"/><polygon class="cls-5" points="30.22 967.3 7.01 491.44 465.03 360.27 588.48 831.83 30.22 967.3"/></g><rect class="cls-1" x="7.01" y="15" width="476.43" height="476.43"/><rect class="cls-5" x="14.84" y="15" width="476.43" height="476.43"/><g class="cls-6"><polygon class="cls-7" points="286.99 33.14 7.01 -352.35 314.02 -716.67 678.34 -409.65 286.99 33.14"/><polygon class="cls-7" points="154.14 100.8 7.01 -352.35 406.69 -611.65 659.36 -183.77 154.14 100.8"/><polygon class="cls-7" points="30.22 123.52 7.01 -352.35 465.03 -483.51 588.48 -11.95 30.22 123.52"/></g><rect class="cls-2" x="7.01" y="-828.78" width="476.43" height="476.43"/></svg>