<svg width="70" height="70" viewBox="0 0 70 70" fill="none" xmlns="http://www.w3.org/2000/svg">
<path fill-rule="evenodd" clip-rule="evenodd" d="M70 35C70 54.33 54.33 70 35 70C15.67 70 0 54.33 0 35C0 15.67 15.67 0 35 0C54.33 0 70 15.67 70 35ZM41.327 22.0522C41.327 25.6208 38.4341 28.5138 34.8654 28.5138C31.2968 28.5138 28.4039 25.6208 28.4039 22.0522C28.4039 18.4836 31.2968 15.5906 34.8654 15.5906C38.4341 15.5906 41.327 18.4836 41.327 22.0522ZM29.3268 30.9371C24.3562 30.9371 20.3268 34.9666 20.3268 39.9371V51.1295H49V39.9371C49 34.9666 44.9706 30.9371 40 30.9371H29.3268Z" fill="white"/>
</svg>
