<?xml version="1.0" standalone="no"?>
<!DOCTYPE svg PUBLIC "-//W3C//DTD SVG 20010904//EN"
 "http://www.w3.org/TR/2001/REC-SVG-20010904/DTD/svg10.dtd">
<svg version="1.0" xmlns="http://www.w3.org/2000/svg"
 width="700.000000pt" height="700.000000pt" viewBox="0 0 700.000000 700.000000"
 preserveAspectRatio="xMidYMid meet">
<metadata>
Created by potrace 1.14, written by Peter Selinger 2001-2017
</metadata>
<g transform="translate(0.000000,700.000000) scale(0.100000,-0.100000)"
fill="#000000" stroke="none">
<path d="M0 3500 l0 -3500 3500 0 3500 0 0 3500 0 3500 -3500 0 -3500 0 0
-3500z m1115 3070 c1 -8 -2 -31 -6 -50 -5 -19 -10 -46 -13 -60 -33 -172 -54
-283 -62 -317 -3 -16 -23 -120 -45 -233 -22 -113 -42 -216 -44 -230 -3 -14 -8
-41 -11 -60 -3 -19 -7 -37 -9 -40 -2 -3 -6 -26 -10 -50 -4 -25 -13 -75 -21
-112 -7 -37 -16 -80 -19 -95 -3 -16 -7 -37 -9 -48 -7 -34 -68 -349 -72 -375
-9 -47 -65 -334 -84 -430 -10 -52 -22 -111 -25 -130 -3 -19 -12 -66 -20 -105
-8 -38 -16 -81 -19 -95 -3 -14 -7 -34 -9 -45 -2 -11 -8 -38 -12 -60 -4 -22 -9
-51 -12 -65 -2 -14 -19 -101 -38 -195 -54 -277 -124 -637 -130 -675 -33 -198
-33 -201 -34 1665 l-1 1820 353 0 c306 0 352 -2 352 -15z m5470 -342 c0 -235
-3 -358 -10 -358 -5 0 -26 4 -45 9 -19 6 -52 12 -73 15 -21 4 -71 13 -110 21
-75 15 -192 37 -312 60 -38 7 -167 32 -285 55 -118 23 -226 44 -240 46 -14 3
-32 7 -40 9 -8 2 -31 7 -50 10 -19 3 -93 18 -165 32 -71 14 -141 27 -155 29
-14 3 -56 11 -95 19 -38 8 -82 16 -97 19 -15 2 -63 12 -105 20 -43 9 -89 18
-103 20 -14 3 -50 10 -80 15 -30 6 -66 13 -80 16 -14 3 -47 9 -75 15 -27 5
-61 11 -75 14 -14 2 -83 15 -155 30 -138 27 -163 32 -210 41 -16 3 -50 10 -75
15 -25 5 -61 12 -80 15 -19 3 -42 8 -50 10 -8 2 -31 7 -50 10 -19 3 -57 10
-85 15 -27 6 -61 13 -75 15 -14 3 -38 8 -55 10 -16 3 -37 8 -45 10 -8 2 -31 7
-50 10 -19 3 -89 17 -155 30 -66 13 -136 27 -155 30 -59 10 -233 45 -236 48
-1 1 824 2 1834 2 l1837 0 0 -357z m-4925 172 c58 -11 114 -21 125 -23 11 -3
36 -7 55 -11 49 -9 77 -14 135 -26 64 -13 93 -19 335 -65 14 -2 78 -15 142
-27 133 -26 127 -17 81 -118 -14 -30 -67 -147 -118 -260 -51 -113 -102 -226
-113 -250 -11 -25 -102 -227 -202 -450 -100 -223 -192 -427 -205 -455 -12 -27
-143 -318 -290 -645 -147 -327 -285 -632 -306 -678 -22 -45 -39 -84 -39 -86 0
-4 -44 -102 -90 -201 -10 -22 -88 -195 -173 -385 -85 -190 -166 -370 -180
-400 -14 -30 -55 -122 -92 -205 -72 -161 -90 -197 -80 -155 3 14 12 61 21 105
14 78 78 404 88 455 9 46 73 376 81 420 2 14 9 45 14 70 6 25 22 104 35 175
14 72 28 144 31 160 3 17 10 53 15 80 5 28 12 64 15 80 3 17 8 39 9 50 7 37
37 189 56 285 11 52 21 106 24 120 2 14 20 107 40 208 20 101 38 195 41 210 2
15 14 72 25 127 11 55 23 116 26 135 3 19 10 54 15 78 5 23 12 59 15 80 3 20
12 65 20 100 7 34 16 77 19 95 3 17 30 158 60 312 29 154 56 291 58 305 3 14
19 97 37 185 17 88 33 169 35 180 88 457 87 455 109 450 12 -3 68 -14 126 -25z
m2355 -455 c28 -5 52 -9 55 -10 21 -5 71 -16 98 -20 18 -3 65 -12 105 -21 39
-8 88 -17 107 -20 19 -3 42 -7 50 -9 8 -3 157 -32 330 -65 173 -34 322 -63
330 -64 14 -3 49 -10 120 -23 14 -2 44 -8 68 -14 23 -5 59 -12 80 -15 20 -3
66 -12 102 -20 36 -7 76 -15 90 -18 14 -2 75 -14 135 -26 61 -12 144 -28 185
-35 119 -23 134 -26 150 -30 8 -3 33 -7 55 -11 22 -3 59 -10 83 -15 23 -5 59
-12 80 -15 20 -3 43 -7 51 -10 8 -2 30 -7 50 -10 20 -3 43 -7 51 -10 8 -3 31
-8 50 -10 20 -3 60 -11 90 -17 l55 -12 0 -433 c0 -237 -1 -432 -2 -432 0 0
-203 100 -450 221 -246 122 -583 288 -748 369 -165 81 -466 230 -670 330 -203
100 -515 254 -692 341 -178 87 -323 160 -323 162 0 2 60 -8 133 -23 72 -15
155 -31 182 -35z m-835 -151 c151 -75 427 -211 613 -302 185 -91 337 -169 337
-172 0 -3 -82 -103 -182 -221 -101 -119 -237 -281 -304 -360 -67 -79 -172
-205 -234 -279 -63 -74 -117 -137 -120 -140 -3 -3 -75 -88 -160 -190 -85 -102
-159 -190 -165 -196 -5 -6 -19 -22 -30 -35 -11 -14 -67 -81 -125 -149 -58 -69
-112 -134 -122 -145 -9 -11 -72 -85 -140 -166 -67 -80 -141 -167 -163 -193
-22 -27 -48 -58 -58 -70 -24 -27 -33 -38 -402 -476 -169 -201 -374 -444 -455
-540 -82 -96 -217 -256 -300 -355 -187 -222 -222 -263 -249 -295 -24 -29 -26
-24 -7 16 8 16 56 121 106 234 51 113 102 228 115 255 12 28 32 70 43 95 11
25 36 80 56 123 20 44 36 80 36 82 0 2 16 39 36 82 20 43 56 123 81 178 25 55
58 129 75 165 16 36 34 74 38 85 9 24 180 405 220 490 15 33 78 173 140 310
61 138 120 268 130 290 10 22 111 247 225 500 114 253 256 568 315 700 184
407 269 596 318 707 26 59 49 108 52 108 3 0 129 -61 280 -136z m1500 -1107
c162 -137 315 -266 340 -287 240 -201 459 -387 478 -405 l24 -22 -384 -248
c-211 -137 -563 -365 -783 -508 -220 -143 -453 -294 -518 -336 -64 -42 -166
-107 -225 -146 -59 -38 -153 -99 -207 -134 -55 -36 -149 -97 -210 -136 -89
-58 -1115 -723 -1530 -992 -55 -36 -179 -116 -275 -179 -96 -63 -188 -122
-205 -131 l-30 -16 35 39 c19 22 55 64 80 94 25 29 50 58 55 64 6 6 53 63 105
126 52 63 107 129 122 145 14 17 142 167 283 335 141 168 277 329 302 358 25
29 55 65 67 80 11 15 33 41 47 57 28 32 406 480 604 715 66 79 125 148 130
154 6 6 44 52 85 101 41 50 77 92 80 95 3 3 30 34 60 70 30 36 57 67 60 70 3
3 15 17 26 32 12 15 42 51 67 80 25 29 125 148 222 263 98 116 194 230 215
255 21 25 82 97 135 160 53 63 140 167 193 230 53 63 112 133 132 155 19 22
50 59 69 82 19 23 39 39 45 35 6 -3 144 -118 306 -255z m1056 -153 c297 -146
609 -300 694 -342 l155 -77 0 -233 c0 -129 -2 -238 -6 -243 -3 -5 -16 1 -30
13 -13 13 -53 48 -89 78 -36 30 -67 57 -70 60 -3 3 -43 37 -90 75 -47 39 -96
80 -110 92 -37 31 -252 213 -275 232 -11 9 -106 88 -210 176 -105 89 -263 223
-353 298 -90 75 -161 137 -159 137 3 0 247 -119 543 -266z m514 -1170 c118
-98 217 -181 220 -184 3 -3 30 -26 60 -51 l55 -46 -1 -249 c-1 -137 -2 -251
-3 -254 0 -2 -20 29 -44 70 -34 60 -236 402 -278 470 -36 60 -226 384 -247
420 l-25 45 24 -21 c13 -11 121 -101 239 -200z m-525 -154 c87 -146 165 -278
175 -295 17 -30 294 -497 311 -525 105 -174 110 -185 86 -192 -41 -13 -2720
-779 -2847 -815 -69 -19 -144 -40 -167 -48 -23 -8 -52 -17 -65 -19 -13 -3
-156 -43 -318 -90 -162 -47 -470 -135 -685 -196 -214 -61 -419 -120 -455 -130
-150 -45 -375 -108 -377 -107 -1 2 765 501 906 590 42 26 168 108 281 182 113
73 279 181 370 240 91 58 296 191 455 295 376 245 1317 854 1885 1222 69 44
159 103 200 129 53 35 76 45 81 36 4 -6 78 -131 164 -277z m622 -1695 c35
-132 77 -294 94 -360 17 -66 56 -212 86 -325 46 -172 56 -220 57 -302 2 -54 0
-101 -3 -106 -3 -4 -1127 -8 -2498 -8 -1371 1 -2487 4 -2480 7 7 4 84 27 172
52 263 74 2403 686 2490 712 106 32 565 163 635 182 30 8 141 40 245 70 105
30 197 56 205 58 22 5 665 191 795 230 61 18 117 32 125 31 10 -1 32 -71 77
-241z"/>
</g>
</svg>
